<?xml version="1.0" encoding="UTF-8"?>
<svg
  id="Layer_1"
  data-name="Layer 1"
  xmlns="http://www.w3.org/2000/svg"
  viewBox="270 800 1475 400"
>
  <defs>
    <style>
      .cls-1 {
        fill: #fff;
      }

      .cls-2 {
        fill: #002a47;
      }
    </style>
  </defs>
  <circle class="cls-2" cx="457.06" cy="999.41" r="159.03" />
  <g>
    <g>
      <g>
        <path
          class="cls-1"
          d="M411.6,1023.02l-45.66,53.23c-2.43,2.83-3.6,6.43-3.32,10.16.28,3.72,1.99,7.12,4.82,9.54,5.84,5.01,14.69,4.34,19.71-1.52l45.66-53.23-21.22-18.18ZM373.22,1083.65c-.65.75-1.61,1.19-2.61,1.19-.82,0-1.62-.28-2.24-.82-1.44-1.24-1.61-3.42-.37-4.86l41.63-48.54c.6-.7,1.44-1.12,2.34-1.19.94-.08,1.83.22,2.51.82,1.44,1.24,1.61,3.42.39,4.86l-41.64,48.54ZM383.97,1092.84c-.65.77-1.61,1.21-2.63,1.21-.82,0-1.61-.3-2.24-.84-.69-.59-1.12-1.42-1.19-2.34-.07-.92.22-1.81.82-2.51l41.63-48.53c.6-.7,1.44-1.12,2.36-1.19.9-.07,1.81.22,2.51.82.69.59,1.11,1.42,1.19,2.34.07.92-.23,1.81-.82,2.51l-41.63,48.53Z"
        />
        <path
          class="cls-1"
          d="M549.78,1076.18l-46.05-52.9-21.08,18.34,46.07,52.9c5.06,5.81,13.9,6.41,19.71,1.37,2.81-2.46,4.5-5.86,4.76-9.58.27-3.73-.95-7.32-3.4-10.13ZM536.75,1093.24c-.64.54-1.44.84-2.28.84-.99,0-1.93-.42-2.6-1.17l-41.98-48.23c-1.26-1.44-1.11-3.62.33-4.87,1.42-1.24,3.6-1.09,4.86.34l42,48.23c.6.7.9,1.59.84,2.51-.07.92-.49,1.76-1.17,2.36ZM547.4,1083.95c-.62.55-1.42.85-2.26.85-.99,0-1.94-.44-2.6-1.19l-42-48.23c-.6-.69-.89-1.57-.84-2.49.07-.92.49-1.76,1.19-2.36,1.42-1.26,3.6-1.11,4.86.33l42,48.23c.6.69.89,1.57.84,2.49-.07.92-.49,1.76-1.19,2.36Z"
        />
        <path
          class="cls-1"
          d="M457.1,840.38c-87.71,0-158.82,71.1-158.82,158.82s71.1,158.83,158.82,158.83,158.82-71.1,158.82-158.83-71.1-158.82-158.82-158.82ZM559.78,1086.42c-.39,5.59-2.93,10.69-7.15,14.37-3.8,3.32-8.7,5.15-13.75,5.15-6.09,0-11.85-2.63-15.84-7.2l-55.47-63.7c-3.11-3.58-2.73-9.02.84-12.13l2.31-2-14.19-16.29-13.53,15.79,2.32,1.99c1.73,1.48,2.79,3.57,2.96,5.87.19,2.29-.54,4.51-2.04,6.24l-55,64.12c-3.99,4.64-9.78,7.32-15.92,7.32-5,0-9.85-1.8-13.65-5.05-8.77-7.52-9.78-20.78-2.26-29.57l55-64.12c1.48-1.73,3.57-2.79,5.87-2.98,2.32-.15,4.53.57,6.24,2.05l2.32,1.99,15.3-17.84-17.92-20.6c-5.87,3.13-12.45,4.8-19.19,4.8-.96,0-1.92-.03-2.88-.1-10.94-.76-20.94-5.72-28.14-14-12.3-14.12-13.5-34.74-2.95-50.15.61-.89,1.6-1.45,2.66-1.51.96-.12,2.05.32,2.81,1.19l18.26,20.97c.61.69.91,1.6.84,2.51l-.59,8.67,18.58,1.3,1.28-18.6-8.67-.59c-.93-.07-1.77-.49-2.37-1.18l-18.26-20.99c-.71-.81-.99-1.88-.79-2.95.22-1.04.91-1.95,1.87-2.42,16.71-8.33,36.97-4.31,49.26,9.81,7.22,8.28,10.77,18.85,10,29.8-.52,7.78-3.2,15.06-7.67,21.22l16.14,18.51,37.23-43.4-3.43-15.05,33.07-19.81,14.44,12.39-14.54,35.69-15.38-1.09-39.01,45.47,15.97,18.34,2.29-2c3.58-3.11,9.02-2.74,12.13.84l55.47,63.7c3.69,4.22,5.5,9.63,5.12,15.21Z"
        />
      </g>
      <path
        class="cls-1"
        d="M638.31,1022.55l-16.23-2.2c-2.14-.31-3.65-2.23-3.45-4.37.49-5.1.73-10.15.73-15.05,0-5.55-.31-11.2-.89-16.86-.22-2.16,1.29-4.07,3.45-4.38l16.39-2.23c2.29-.31,4.32-1.51,5.68-3.38,1.38-1.89,1.94-4.21,1.54-6.5-1.98-11.51-5.01-22.87-9.06-33.76-.8-2.2-2.43-3.92-4.56-4.86-2.12-.94-4.48-.96-6.61-.09l-15.17,6.19c-2,.82-4.25-.09-5.16-2.05-2.12-4.63-4.43-9.15-6.88-13.41-2.78-4.79-5.88-9.55-9.2-14.14-1.29-1.75-.94-4.19.78-5.52l12.91-10c1.83-1.42,2.99-3.47,3.23-5.79.25-2.34-.44-4.61-1.96-6.41-7.46-8.91-15.78-17.17-24.71-24.56-1.81-1.49-4.05-2.16-6.39-1.91-2.3.26-4.34,1.4-5.77,3.23l-9.84,12.69c-1.31,1.72-3.72,2.05-5.48.8-4.16-2.96-8.42-5.7-12.67-8.15-4.81-2.76-9.87-5.34-15.05-7.66-1.98-.87-2.89-3.16-2.07-5.17l6.06-14.78c.87-2.16.82-4.52-.11-6.66-.96-2.14-2.69-3.76-4.9-4.56-10.87-3.94-22.18-6.9-33.63-8.8-2.31-.38-4.61.16-6.48,1.54-1.87,1.38-3.05,3.38-3.36,5.68l-2.12,15.48c-.31,2.14-2.2,3.65-4.37,3.45-10.84-1.02-21.26-.96-31.9.16-2.14.25-4.08-1.29-4.37-3.45l-2.12-15.34c-.31-2.29-1.51-4.32-3.38-5.68-1.89-1.38-4.21-1.94-6.52-1.52-11.42,2-22.67,5.06-33.45,9.09-2.18.82-3.89,2.45-4.83,4.58-.94,2.12-.96,4.45-.09,6.59l5.74,14.07c.82,2-.09,4.25-2.05,5.17-4.63,2.12-9.15,4.43-13.4,6.88-4.79,2.78-9.55,5.88-14.14,9.19-1.76,1.29-4.19.94-5.52-.78l-9.19-11.87c-1.43-1.85-3.47-2.99-5.79-3.23-2.34-.24-4.61.45-6.41,1.96-8.82,7.39-16.99,15.63-24.31,24.47-1.5,1.81-2.19,4.07-1.92,6.39.25,2.3,1.4,4.34,3.23,5.77l11.65,9.02c1.69,1.33,2.05,3.74.8,5.52-2.96,4.17-5.7,8.42-8.15,12.65-2.76,4.81-5.35,9.87-7.66,15.05-.87,1.98-3.14,2.89-5.17,2.07l-13.69-5.59c-2.16-.89-4.5-.84-6.63.09-2.14.94-3.76,2.67-4.56,4.88-3.94,10.75-6.93,21.98-8.84,33.31-.4,2.32.13,4.63,1.51,6.5,1.38,1.87,3.41,3.07,5.7,3.38l14.4,1.96c2.14.31,3.65,2.23,3.45,4.37-.49,5.1-.74,10.15-.74,15.05,0,5.54.31,11.22.89,16.85.25,2.16-1.29,4.07-3.45,4.37l-14.56,2c-2.3.31-4.32,1.51-5.7,3.38-1.38,1.87-1.91,4.19-1.51,6.5,1.92,11.33,4.9,22.56,8.84,33.31.8,2.2,2.43,3.94,4.56,4.88,2.13.94,4.47.98,6.63.09l13.54-5.52c2-.81,4.27.09,5.17,2.05,2.11,4.65,4.45,9.15,6.88,13.4,2.78,4.79,5.88,9.55,9.22,14.14,1.27,1.76.91,4.19-.8,5.52l-11.78,9.13c-1.82,1.42-2.98,3.47-3.23,5.76-.25,2.31.42,4.59,1.92,6.39,7.32,8.84,15.5,17.08,24.31,24.47,1.81,1.51,4.07,2.23,6.41,1.96,2.32-.25,4.37-1.38,5.79-3.23l9.11-11.74c1.31-1.69,3.74-2.05,5.5-.8,4.16,2.96,8.42,5.7,12.64,8.15,4.81,2.76,9.87,5.35,15.05,7.66,1.99.87,2.9,3.16,2.07,5.17l-5.81,14.23c-.87,2.13-.85,4.47.09,6.59.94,2.14,2.65,3.76,4.83,4.59,10.8,4.03,22.05,7.08,33.45,9.08,2.31.42,4.63-.11,6.52-1.51,1.87-1.36,3.07-3.38,3.38-5.68l2.09-15.19c.29-2.14,2.2-3.65,4.34-3.45,10.87,1.05,21.29.96,31.91-.15,2.18-.22,4.07,1.29,4.38,3.45l2.14,15.63c.31,2.27,1.49,4.3,3.36,5.66,1.49,1.11,3.23,1.67,5.06,1.67.47,0,.94-.02,1.42-.11,11.44-1.89,22.76-4.85,33.63-8.79,2.2-.8,3.94-2.43,4.9-4.56.94-2.14.98-4.5.11-6.66l-5.99-14.63c-.8-2,.09-4.25,2.05-5.17,4.66-2.11,9.15-4.43,13.41-6.88,4.79-2.78,9.55-5.88,14.13-9.19,1.76-1.29,4.19-.94,5.52.78l9.93,12.81c1.43,1.85,3.47,2.98,5.77,3.25,2.31.25,4.58-.42,6.39-1.92,8.93-7.39,17.26-15.65,24.71-24.56,1.51-1.81,2.2-4.07,1.96-6.41-.24-2.32-1.4-4.37-3.23-5.79l-12.78-9.88c-1.69-1.34-2.05-3.74-.81-5.5,2.96-4.19,5.7-8.44,8.15-12.67,2.78-4.81,5.34-9.86,7.66-15.05.89-1.98,3.14-2.89,5.17-2.07l15.32,6.26c2.13.87,4.5.84,6.61-.09,2.14-.94,3.76-2.67,4.56-4.85,4.05-10.89,7.08-22.25,9.06-33.76.4-2.29-.15-4.61-1.54-6.5-1.36-1.87-3.38-3.07-5.68-3.38ZM457.32,1156.85c-86.87,0-157.54-70.67-157.54-157.54,0-52.13,25.45-98.42,64.58-127.11.25-.14.49-.31.73-.48,4.45-3.23,9.09-6.26,13.74-8.95,4.14-2.38,8.53-4.63,13.02-6.68.29-.13.57-.28.83-.44h0c14.41-6.51,29.97-10.92,46.28-12.82.82.16,1.68.2,2.56.12,10.35-1.09,20.46-1.16,31.01-.16.73.07,1.45.04,2.15-.07,15.83,1.74,30.95,5.84,45.02,11.93.69.65,1.5,1.2,2.41,1.61,5.03,2.25,9.95,4.74,14.63,7.44,4.12,2.38,8.26,5.06,12.31,7.93.56.4,1.14.72,1.75.96,12.7,9.39,23.95,20.65,33.33,33.37.26.74.64,1.45,1.13,2.12,3.23,4.48,6.26,9.11,8.95,13.76,2.38,4.14,4.63,8.5,6.68,13.03.21.46.46.89.74,1.29,6.41,14.59,10.68,30.34,12.38,46.83-.04.5-.03,1.02.02,1.55.38,3.67.64,7.34.77,10.97.03,1.26.05,2.53.05,3.8,0,86.86-70.67,157.54-157.54,157.54Z"
      />
    </g>
    <g>
      <g>
        <path
          class="cls-1"
          d="M760.25,962.43c4.02,0,7.2-.68,9.54-2.05,2.33-1.36,3.72-3.63,4.15-6.79.22-1.65-.4-3.14-1.83-4.47-1.44-1.33-3.52-1.99-6.25-1.99h-29.21l-6.58-15.09h44.63c4.17,0,7.53.68,10.08,2.05,2.55,1.37,4.49,3.13,5.82,5.28,1.33,2.16,2.14,4.57,2.42,7.22.29,2.66.25,5.28-.11,7.87-1.01,7.4-3.9,13.1-8.68,17.09-4.78,3.99-10.94,5.98-18.49,5.98h-9.38c-3.95,0-7.08.56-9.38,1.67-2.3,1.11-3.63,2.93-3.99,5.44l-1.19,7.76h39.45l6.58,15.09h-67.05l2.8-20.37c.65-4.53,1.76-8.35,3.34-11.48,1.58-3.13,3.57-5.68,5.98-7.65,2.41-1.98,5.19-3.4,8.35-4.26,3.16-.86,6.65-1.29,10.46-1.29h8.52Z"
        />
        <path
          class="cls-1"
          d="M814.14,932.03h18.65l-16.92,42.69h17.14l5.93-42.69h19.4l-5.93,42.69h10.56l-2.16,15.09h-10.56l-2.48,17.68h-19.4l2.48-17.68h-39.56l22.85-57.78Z"
        />
        <path
          class="cls-1"
          d="M904.69,932.03h19.4l21.56,36.33,31.69-36.33h19.4l-10.56,75.46h-19.4l7.01-50.02-31.69,36.33-21.56-36.33-7.01,50.02h-19.4l10.56-75.46Z"
        />
        <path
          class="cls-1"
          d="M1043.31,969.76l-3.67-13.58-15.31,26.3,45.92-22.85-21.77,28.46-38.59,19.4h-20.48l43.76-75.46h20.48l7.98,28.89-18.32,8.84ZM1053.66,1007.49l-4.53-14.98,15.52-20.05,9.49,35.03h-20.48Z"
        />
        <path
          class="cls-1"
          d="M1084.49,957.47l21.56-15.63-9.16,65.65h-19.4l7.01-50.02ZM1085.14,952.73l2.91-20.7h19.4l-.65,5.07-21.67,15.63Z"
        />
        <path
          class="cls-1"
          d="M1118.44,932.03h19.4l30.07,50.12,7.01-50.12h19.4l-10.56,75.46h-19.4l-30.07-50.12-7.01,50.12h-19.4l10.56-75.46Z"
        />
        <path
          class="cls-1"
          d="M1199.83,932.03h70.07l-10.67,15.09h-16.82l-8.41,60.37h-19.4l8.41-60.37h-12.5l-10.67-15.09Z"
        />
        <path
          class="cls-1"
          d="M1275.39,932.03h59.29l-2.05,15.09h-39.99l-2.05,15.09h36.65l-19.73,15.09h-19.08l-2.05,15.09h40.85l-2.05,15.09h-60.37l10.56-75.46Z"
        />
        <path
          class="cls-1"
          d="M1343.41,932.03h19.4l30.07,50.12,7.01-50.12h19.4l-10.56,75.46h-19.4l-30.07-50.12-7.01,50.12h-19.4l10.56-75.46Z"
        />
        <path
          class="cls-1"
          d="M1465.86,969.76l-3.66-13.58-15.31,26.3,45.92-22.85-21.77,28.46-38.59,19.4h-20.48l43.77-75.46h20.48l7.98,28.89-18.33,8.84ZM1476.21,1007.49l-4.53-14.98,15.52-20.05,9.49,35.03h-20.48Z"
        />
        <path
          class="cls-1"
          d="M1510.6,932.03h19.4l30.07,50.12,7.01-50.12h19.4l-10.56,75.46h-19.4l-30.07-50.12-7.01,50.12h-19.4l10.56-75.46Z"
        />
        <path
          class="cls-1"
          d="M1604.38,1007.49c-2.88,0-5.44-.47-7.71-1.4-2.26-.93-4.13-2.25-5.61-3.93-1.47-1.69-2.52-3.74-3.13-6.14-.61-2.41-.7-5.05-.27-7.92l5.17-36.65c.43-2.95,1.27-5.61,2.53-7.98,1.26-2.37,2.86-4.4,4.8-6.09,1.94-1.69,4.17-3,6.68-3.93,2.51-.93,5.21-1.4,8.08-1.4h42.58l-10.67,15.09h-23.61c-3.16,0-5.84,1.06-8.03,3.18-2.19,2.12-3.54,4.94-4.04,8.46l-3.02,21.99c-.5,3.52.02,6.34,1.56,8.46,1.54,2.12,3.9,3.18,7.06,3.18h25.22l10.67,15.09h-48.29Z"
        />
        <path
          class="cls-1"
          d="M1670.56,932.03h59.29l-2.05,15.09h-39.99l-2.05,15.09h36.65l-19.73,15.09h-19.08l-2.05,15.09h40.85l-2.05,15.09h-60.37l10.56-75.46Z"
        />
      </g>
      <g>
        <path
          class="cls-1"
          d="M724.29,1037.42h3.51l1.89,24.98,14.87-25.06h2.79l1.58,25.06,15.25-24.98h3.81l-18.81,30.2h-2.96l-1.71-24.21-14.7,24.21h-2.91l-2.61-30.2Z"
        />
        <path
          class="cls-1"
          d="M803.8,1037.42h21.47l-.86,3.08h-18.08l-2.74,10.24h16.15l-.86,3.08h-16.11l-2.83,10.5h18.29l-.81,3.08h-21.68l8.05-29.99Z"
        />
        <path
          class="cls-1"
          d="M860.61,1037.42h3.94l-.04.21-5.96,11.44h-1.84l3.9-11.65Z"
        />
        <path
          class="cls-1"
          d="M908.81,1055.76h-8.1l-3.13,11.65h-3.38l8.05-29.99h10.8c3.73,0,6.56.9,8.44,2.74,1.33,1.37,1.97,3.08,1.97,5.18,0,2.61-.99,4.8-2.66,6.51-2.01,2.01-5.1,3.08-8.31,3.6l6.17,11.95h-3.9l-5.96-11.65ZM909.66,1052.72c3.94,0,6.86-1.07,8.53-2.74,1.16-1.2,1.8-2.61,1.8-4.37,0-1.33-.43-2.44-1.24-3.26-1.16-1.16-3-1.8-5.87-1.8h-8.05l-3.3,12.17h8.14Z"
        />
        <path
          class="cls-1"
          d="M962.96,1037.42h21.47l-.86,3.08h-18.08l-2.74,10.24h16.15l-.86,3.08h-16.11l-2.83,10.5h18.29l-.81,3.08h-21.68l8.05-29.99Z"
        />
        <path
          class="cls-1"
          d="M1063.77,1037.42h3.38l-3.56,13.32h17.1l3.56-13.32h3.43l-8.05,29.99h-3.43l3.64-13.5h-17.09l-3.64,13.5h-3.38l8.05-29.99Z"
        />
        <path
          class="cls-1"
          d="M1126.14,1037.42h21.47l-.86,3.08h-18.08l-2.74,10.24h16.15l-.86,3.08h-16.11l-2.83,10.5h18.29l-.81,3.08h-21.68l8.05-29.99Z"
        />
        <path
          class="cls-1"
          d="M1190.66,1055.76h-8.1l-3.13,11.65h-3.38l8.05-29.99h10.8c3.73,0,6.56.9,8.44,2.74,1.33,1.37,1.97,3.08,1.97,5.18,0,2.61-.99,4.8-2.66,6.51-2.01,2.01-5.1,3.08-8.31,3.6l6.17,11.95h-3.9l-5.96-11.65ZM1191.52,1052.72c3.94,0,6.86-1.07,8.53-2.74,1.16-1.2,1.8-2.61,1.8-4.37,0-1.33-.43-2.44-1.24-3.26-1.16-1.16-3-1.8-5.87-1.8h-8.05l-3.3,12.17h8.14Z"
        />
        <path
          class="cls-1"
          d="M1244.81,1037.42h21.47l-.86,3.08h-18.08l-2.74,10.24h16.15l-.86,3.08h-16.11l-2.83,10.5h18.29l-.81,3.08h-21.68l8.05-29.99Z"
        />
        <path
          class="cls-1"
          d="M1345.62,1037.42h21.55l-.81,3.13h-18.21l-2.87,10.71h16.28l-.86,3.08h-16.24l-3.51,13.07h-3.38l8.05-29.99Z"
        />
        <path
          class="cls-1"
          d="M1428.22,1049.89c0,4.84-2.06,9.55-5.44,12.98-3.13,3.08-7.28,5.1-12.04,5.1-7.76,0-13.15-5.7-13.15-13.03,0-4.84,2.06-9.51,5.48-12.94,3.08-3.08,7.24-5.1,12-5.1,7.75,0,13.15,5.7,13.15,12.98ZM1420.12,1060.9c2.91-2.91,4.54-6.9,4.54-10.88,0-5.65-3.81-9.98-9.81-9.98-3.64,0-6.77,1.54-9.17,3.94-2.91,2.87-4.54,6.81-4.54,10.88,0,5.66,3.81,9.98,9.81,9.98,3.64,0,6.77-1.54,9.17-3.94Z"
        />
        <path
          class="cls-1"
          d="M1475.77,1055.76h-8.1l-3.13,11.65h-3.38l8.05-29.99h10.8c3.73,0,6.56.9,8.44,2.74,1.33,1.37,1.97,3.08,1.97,5.18,0,2.61-.99,4.8-2.66,6.51-2.01,2.01-5.1,3.08-8.31,3.6l6.17,11.95h-3.9l-5.96-11.65ZM1476.63,1052.72c3.94,0,6.86-1.07,8.53-2.74,1.16-1.2,1.8-2.61,1.8-4.37,0-1.33-.43-2.44-1.24-3.26-1.16-1.16-3-1.8-5.87-1.8h-8.05l-3.3,12.17h8.14Z"
        />
        <path
          class="cls-1"
          d="M1575.94,1055.33l-7.41-17.91h3.77l6,15.12,14.14-15.12h4.33l-17.57,18.47-3.09,11.53h-3.43l3.26-12.08Z"
        />
        <path
          class="cls-1"
          d="M1655.62,1049.89c0,4.84-2.06,9.55-5.44,12.98-3.13,3.08-7.28,5.1-12.04,5.1-7.76,0-13.15-5.7-13.15-13.03,0-4.84,2.06-9.51,5.48-12.94,3.08-3.08,7.24-5.1,12-5.1,7.75,0,13.15,5.7,13.15,12.98ZM1647.53,1060.9c2.91-2.91,4.54-6.9,4.54-10.88,0-5.65-3.81-9.98-9.81-9.98-3.64,0-6.77,1.54-9.17,3.94-2.91,2.87-4.54,6.81-4.54,10.88,0,5.66,3.81,9.98,9.81,9.98,3.64,0,6.77-1.54,9.17-3.94Z"
        />
        <path
          class="cls-1"
          d="M1691.22,1058.29c0-1.59.21-3.13.64-4.67l4.28-16.19h3.43l-4.54,17.09c-.3.9-.43,2.06-.43,3.38,0,3.94,2.53,6.86,7.84,6.86,2.53,0,4.8-.9,6.68-2.74,1.54-1.59,2.96-4.03,3.81-7.33l4.67-17.27h3.38l-4.8,17.87c-1.03,3.81-2.61,6.77-4.71,8.87-2.48,2.49-5.61,3.73-9.34,3.73-7.15,0-10.93-3.98-10.93-9.6Z"
        />
      </g>
    </g>
  </g>
</svg>
