<?xml version="1.0" encoding="UTF-8"?>
<svg id="Layer_1" data-name="Layer 1" xmlns="http://www.w3.org/2000/svg" viewBox="0 0 2000 2000">
  <defs>
    <style>
      .cls-1 {
        fill: #fff;
      }

      .cls-2 {
        fill: #002a47;
      }
    </style>
  </defs>
  <circle class="cls-2" cx="1000" cy="989.94" r="231.83"/>
  <g>
    <g>
      <g>
        <path class="cls-1" d="M932.58,1033.19l-66.49,77.51c-3.54,4.12-5.24,9.36-4.83,14.8.41,5.41,2.9,10.36,7.02,13.9,8.51,7.29,21.38,6.31,28.7-2.22l66.49-77.51-30.89-26.48ZM876.7,1121.48c-.95,1.1-2.34,1.73-3.8,1.73-1.19,0-2.37-.41-3.27-1.19-2.1-1.8-2.34-4.97-.54-7.07l60.61-70.68c.88-1.02,2.1-1.63,3.41-1.73,1.37-.12,2.66.32,3.66,1.19,2.1,1.8,2.34,4.97.56,7.07l-60.64,70.68ZM892.35,1134.86c-.95,1.12-2.34,1.76-3.83,1.76-1.19,0-2.34-.44-3.27-1.22-1-.85-1.63-2.07-1.73-3.41-.1-1.34.32-2.63,1.19-3.66l60.61-70.66c.88-1.02,2.1-1.63,3.44-1.73,1.32-.1,2.63.32,3.66,1.19,1,.85,1.61,2.07,1.73,3.41.1,1.34-.34,2.63-1.19,3.66l-60.61,70.66Z"/>
        <path class="cls-1" d="M1133.78,1110.6l-67.05-77.02-30.7,26.7,67.07,77.02c7.36,8.46,20.24,9.34,28.7,2,4.1-3.58,6.56-8.53,6.92-13.95.39-5.44-1.39-10.65-4.95-14.75ZM1114.81,1135.45c-.93.78-2.1,1.22-3.32,1.22-1.44,0-2.8-.61-3.78-1.71l-61.13-70.22c-1.83-2.1-1.61-5.27.49-7.1,2.07-1.8,5.24-1.58,7.07.49l61.15,70.22c.88,1.02,1.32,2.32,1.22,3.66-.1,1.34-.71,2.56-1.71,3.44ZM1130.32,1121.92c-.9.8-2.07,1.24-3.29,1.24-1.44,0-2.83-.63-3.78-1.73l-61.15-70.22c-.88-1-1.29-2.29-1.22-3.63.1-1.34.71-2.56,1.73-3.44,2.07-1.83,5.24-1.61,7.07.49l61.15,70.22c.88,1,1.29,2.29,1.22,3.63-.1,1.34-.71,2.56-1.73,3.44Z"/>
      </g>
      <path class="cls-1" d="M1343.89,1045.79l-30.77-4.16c-4.05-.6-6.92-4.23-6.54-8.28.94-9.65,1.39-19.25,1.39-28.51,0-10.52-.58-21.24-1.68-31.96-.43-4.07,2.44-7.72,6.54-8.3l31.07-4.21c4.34-.6,8.19-2.89,10.74-6.42,2.64-3.58,3.69-7.97,2.93-12.31-3.76-21.82-9.51-43.35-17.19-63.97-1.5-4.19-4.59-7.43-8.64-9.22-4.01-1.77-8.48-1.81-12.53-.16l-28.74,11.73c-3.78,1.57-8.06-.16-9.78-3.87-4.01-8.8-8.39-17.35-13.05-25.4-5.26-9.09-11.15-18.11-17.44-26.81-2.44-3.31-1.77-7.92,1.5-10.45l24.46-18.96c3.47-2.69,5.66-6.58,6.11-10.97.47-4.43-.83-8.73-3.72-12.15-14.12-16.88-29.9-32.52-46.82-46.53-3.42-2.82-7.68-4.1-12.11-3.63-4.36.49-8.24,2.66-10.94,6.11l-18.64,24.06c-2.48,3.25-7.05,3.87-10.39,1.5-7.88-5.6-15.94-10.79-23.99-15.42-9.13-5.24-18.71-10.14-28.54-14.53-3.76-1.66-5.48-6-3.92-9.78l11.48-28.02c1.63-4.1,1.57-8.57-.22-12.62-1.81-4.05-5.1-7.12-9.27-8.64-20.59-7.48-42.03-13.09-63.74-16.67-4.39-.72-8.73.29-12.26,2.91s-5.77,6.42-6.38,10.77l-4.01,29.32c-.58,4.05-4.16,6.92-8.26,6.54-20.55-1.92-40.31-1.81-60.47.31-4.05.45-7.72-2.46-8.26-6.56l-4.01-29.07c-.6-4.34-2.89-8.17-6.42-10.74-3.58-2.62-7.97-3.67-12.35-2.89-21.64,3.8-42.97,9.58-63.38,17.23-4.14,1.54-7.39,4.63-9.15,8.68-1.77,4.01-1.81,8.44-.18,12.49l10.9,26.66c1.54,3.8-.18,8.08-3.89,9.8-8.77,4.01-17.35,8.39-25.4,13.03-9.06,5.28-18.08,11.15-26.79,17.44-3.33,2.44-7.92,1.77-10.45-1.48l-17.44-22.49c-2.71-3.49-6.58-5.66-10.97-6.11-4.43-.47-8.73.85-12.15,3.72-16.72,14.01-32.21,29.61-46.08,46.37-2.82,3.42-4.14,7.72-3.63,12.11.47,4.34,2.66,8.21,6.11,10.92l22.09,17.1c3.2,2.53,3.87,7.07,1.5,10.45-5.62,7.9-10.79,15.96-15.44,23.97-5.24,9.11-10.12,18.69-14.5,28.51-1.66,3.76-5.95,5.48-9.8,3.94l-25.94-10.61c-4.1-1.68-8.53-1.59-12.58.18-4.05,1.77-7.12,5.06-8.64,9.24-7.47,20.39-13.14,41.65-16.76,63.12-.76,4.41.25,8.8,2.86,12.33,2.62,3.54,6.47,5.82,10.81,6.4l27.31,3.72c4.05.6,6.92,4.23,6.54,8.28-.92,9.67-1.39,19.25-1.39,28.51,0,10.52.58,21.28,1.68,31.94.47,4.1-2.44,7.72-6.54,8.28l-27.6,3.8c-4.34.58-8.19,2.86-10.81,6.4-2.62,3.56-3.63,7.95-2.86,12.33,3.63,21.46,9.29,42.73,16.76,63.12,1.52,4.19,4.59,7.48,8.64,9.24,4.05,1.77,8.48,1.86,12.58.16l25.65-10.45c3.8-1.52,8.1.16,9.8,3.87,3.98,8.82,8.42,17.35,13.03,25.4,5.28,9.06,11.15,18.11,17.48,26.79,2.39,3.33,1.72,7.95-1.52,10.47l-22.34,17.3c-3.45,2.69-5.64,6.58-6.11,10.92-.47,4.39.81,8.71,3.63,12.11,13.88,16.76,29.36,32.36,46.08,46.37,3.42,2.86,7.72,4.23,12.15,3.72,4.39-.47,8.26-2.62,10.97-6.11l17.26-22.25c2.48-3.2,7.09-3.87,10.43-1.52,7.88,5.62,15.96,10.81,23.95,15.44,9.13,5.24,18.71,10.14,28.54,14.53,3.76,1.63,5.48,6,3.92,9.78l-11.01,26.97c-1.63,4.05-1.59,8.48.18,12.49,1.77,4.05,5.01,7.14,9.15,8.68,20.46,7.63,41.79,13.43,63.38,17.21,4.39.81,8.77-.2,12.35-2.86,3.54-2.57,5.82-6.4,6.42-10.74l3.96-28.78c.54-4.05,4.16-6.92,8.21-6.56,20.59,1.99,40.35,1.84,60.47-.27,4.14-.43,7.72,2.44,8.3,6.54l4.05,29.61c.6,4.3,2.84,8.15,6.38,10.72,2.82,2.1,6.11,3.16,9.58,3.16.9,0,1.77-.02,2.69-.2,21.71-3.58,43.15-9.2,63.74-16.67,4.16-1.5,7.45-4.59,9.27-8.64,1.79-4.05,1.86-8.53.22-12.62l-11.35-27.73c-1.52-3.78.16-8.06,3.87-9.78,8.82-4.01,17.35-8.39,25.4-13.05,9.06-5.26,18.11-11.12,26.79-17.41,3.33-2.46,7.95-1.77,10.47,1.48l18.8,24.26c2.71,3.49,6.58,5.64,10.94,6.15,4.39.47,8.68-.81,12.11-3.63,16.92-14.01,32.7-29.66,46.82-46.53,2.89-3.42,4.19-7.72,3.72-12.15-.45-4.41-2.64-8.28-6.11-10.99l-24.22-18.73c-3.22-2.53-3.89-7.07-1.52-10.41,5.62-7.95,10.81-16,15.44-24.02,5.28-9.11,10.12-18.69,14.5-28.54,1.7-3.74,5.95-5.48,9.8-3.92l29.03,11.86c4.05,1.63,8.53,1.59,12.53-.18,4.05-1.77,7.14-5.06,8.64-9.2,7.68-20.64,13.43-42.14,17.19-63.97.76-4.34-.29-8.73-2.93-12.31-2.55-3.54-6.4-5.82-10.74-6.42ZM1150.94,1129.59c-.56,8.1-4.25,15.49-10.39,20.84-5.51,4.81-12.62,7.48-19.94,7.48-8.84,0-17.19-3.8-22.96-10.45l-80.46-92.39c-4.52-5.21-3.96-13.09,1.21-17.61l3.36-2.89-20.59-23.63-19.63,22.9,3.38,2.89c2.51,2.15,4.05,5.17,4.3,8.5.27,3.33-.78,6.56-2.95,9.06l-79.79,93.02c-5.77,6.74-14.17,10.61-23.1,10.61-7.25,0-14.28-2.62-19.79-7.32-12.71-10.92-14.19-30.15-3.27-42.9l79.77-92.99c2.15-2.53,5.17-4.05,8.53-4.32,3.36-.22,6.56.83,9.06,2.98l3.36,2.86,22.2-25.87-26.01-29.88c-8.53,4.54-18.06,6.96-27.84,6.96-1.39,0-2.78-.04-4.16-.16-15.87-1.1-30.37-8.28-40.82-20.3-17.84-20.48-19.58-50.38-4.27-72.74.9-1.3,2.33-2.1,3.87-2.22,1.39-.16,2.98.47,4.07,1.75l26.48,30.42c.9,1.01,1.32,2.33,1.23,3.63l-.85,12.58,26.95,1.88,1.86-26.97-12.58-.85c-1.34-.11-2.57-.72-3.45-1.72l-26.48-30.44c-1.03-1.16-1.45-2.73-1.16-4.27.34-1.5,1.32-2.82,2.73-3.51,24.24-12.09,53.63-6.24,71.44,14.23,10.47,12.02,15.62,27.35,14.5,43.24-.76,11.28-4.63,21.84-11.12,30.77l23.41,26.86,53.98-62.96-4.97-21.82,47.96-28.74,20.95,17.97-21.08,51.77-22.31-1.57-56.6,65.96,23.19,26.61,3.31-2.91c5.19-4.52,13.07-3.98,17.59,1.21l80.46,92.41c5.35,6.13,7.99,13.97,7.43,22.07Z"/>
    </g>
    <g>
      <g>
        <circle class="cls-2" cx="726.26" cy="1012.26" r="9.24"/>
        <circle class="cls-2" cx="1273.74" cy="1012.26" r="9.24"/>
      </g>
      <g>
        <path class="cls-2" d="M759.42,895.16c1.03-2.22,1.48-4.14,1.32-5.78-.15-1.64-1.04-2.98-2.67-4.03-.85-.54-1.83-.59-2.93-.14-1.1.45-2,1.43-2.7,2.93l-7.5,16.08-10-.26,11.46-24.57c1.07-2.29,2.31-3.97,3.72-5.02,1.41-1.05,2.87-1.67,4.4-1.85,1.53-.18,3.06,0,4.6.52,1.54.53,2.97,1.22,4.3,2.08,3.82,2.46,6.21,5.51,7.18,9.17.97,3.66.48,7.56-1.45,11.72l-2.41,5.16c-1.02,2.18-1.51,4.04-1.49,5.59.02,1.55.68,2.75,1.97,3.59l3.97,2.65,10.13-21.72,10,.25-17.22,36.92-10.5-6.78c-2.33-1.52-4.15-3.11-5.46-4.79-1.32-1.67-2.21-3.43-2.68-5.26-.47-1.83-.54-3.73-.2-5.69.34-1.96.99-3.99,1.97-6.09l2.19-4.69Z"/>
        <path class="cls-2" d="M761.75,853.85l6.45-9.31,15.46,23.22,5.93-8.56-19.27-17.73,6.71-9.69,19.27,17.73,3.65-5.28,6.79,6.3-3.65,5.28,7.97,7.35-6.71,9.69-7.97-7.35-13.69,19.76-20.95-31.4Z"/>
        <path class="cls-2" d="M802.84,803.8l9.13-7.45,24.1,8.82.97-29.27,9.13-7.45,24.01,39.58-9.13,7.45-15.91-26.24-.97,29.27-24.1-8.82,15.91,26.24-9.13,7.45-24.01-39.58Z"/>
        <path class="cls-2" d="M889.12,773.26l-5.68-6.39-1.19,18.45,18.77-24.88-4.12,21.38-15.72,21.01-11.13,5.55,3.33-52.89,11.13-5.55,12.17,13.54-7.56,9.78ZM904.98,790.97l-6.53-6.92,3-15.11,14.66,16.47-11.13,5.55Z"/>
        <path class="cls-2" d="M910.83,753.44l-2.37-12.47,11.16-3.8.62,3.04-9.4,13.23ZM911.39,756.29l9.34-13.21,7.57,39.55-11.16,3.8-5.75-30.14Z"/>
        <path class="cls-2" d="M930.86,733.91l11.59-2.17,23.56,26.57-1.42-30.72,11.59-2.17,2.12,46.24-11.59,2.17-23.56-26.57,1.42,30.72-11.59,2.17-2.12-46.24Z"/>
        <path class="cls-2" d="M986.88,725.74l42.56.69-6.63,9.06-10.21-.17-5.7,36.59-11.79-.19,5.7-36.59-7.6-.12-6.33-9.27Z"/>
        <path class="cls-2" d="M1037.84,728.25l35.5,6.09-2.78,8.83-23.95-4.11-2.78,8.83,21.95,3.76-13.36,7.01-11.42-1.96-2.78,8.83,24.46,4.2-2.78,8.83-36.15-6.2,14.08-44.1Z"/>
        <path class="cls-2" d="M1084.62,738.22l11.04,4.13,6.43,34.93,14.67-27.03,11.04,4.13-22.09,40.68-11.04-4.13-6.43-34.93-14.67,27.02-11.04-4.13,22.09-40.68Z"/>
        <path class="cls-2" d="M1145.65,792.81l2.51-8.17-16.38,8.58,31.01,3.1-20.4,7.59-26.12-2.5-10.53-6.62,46.91-24.65,10.53,6.62-5.24,17.44-12.28-1.38ZM1138.76,815.56l2.52-9.17,14.47-5.29-6.45,21.09-10.53-6.62Z"/>
        <path class="cls-2" d="M1185.41,793.68l8.52,8.15-7.84,34.64,24.12-19.07,8.52,8.15-36.32,28.7-8.52-8.15,7.84-34.64-24.12,19.07-8.52-8.15,36.32-28.7Z"/>
        <path class="cls-2" d="M1191.25,866.68c-1.01-1.43-1.68-2.86-2.01-4.32-.33-1.45-.33-2.84-.01-4.16.32-1.32.97-2.56,1.95-3.7.98-1.15,2.26-2.12,3.84-2.91l20-10.28c1.61-.82,3.23-1.33,4.85-1.54,1.62-.21,3.18-.13,4.7.24,1.52.37,2.95,1.02,4.29,1.94,1.34.92,2.52,2.09,3.53,3.52l14.93,21.13h-11.23s-8.28-11.72-8.28-11.72c-1.11-1.57-2.57-2.52-4.39-2.87-1.82-.34-3.69-.02-5.61.96l-11.97,6.21c-1.92.98-3.14,2.23-3.65,3.74-.51,1.51-.21,3.05.9,4.62l8.84,12.52-3.75,10.59-16.93-23.96Z"/>
        <path class="cls-2" d="M1253.4,879.19l15.47,32.52-8.81,2.82-10.44-21.94-8.81,2.82,9.57,20.11-13.43-6.88-4.98-10.47-8.81,2.82,10.66,22.41-8.81,2.82-15.75-33.12,44.15-13.9Z"/>
      </g>
      <g>
        <path class="cls-2" d="M740.47,1058.77l1.3,3.02-17.48,15.86,23.48-2.1.98,2.29-17.67,15.61,23.53-1.79,1.26,2.92-28.58,1.88-1.01-2.36,17.07-15.35-22.9,1.81-1-2.32,21.01-19.46Z"/>
        <path class="cls-2" d="M765.71,1110.93l10.62,16.2-2.31,1.51-8.96-13.67-7.65,5.02,8.02,12.23-2.31,1.51-8.02-12.23-7.85,5.14,9.07,13.83-2.31,1.51-10.73-16.36,22.41-14.69Z"/>
        <path class="cls-2" d="M788.83,1143.09l2.31,2.76-.15.12-9.84,4.17-1.06-1.26,8.73-5.79Z"/>
        <path class="cls-2" d="M804.53,1160.75l8.38,7.91c2.42,2.29,3.63,4.8,3.7,7.18.05,1.89-.65,3.7-2.13,5.26l-.05.06c-3.05,3.23-7.09,3.05-10.65.68l-1.54,13.61-2.7-2.55,1.5-12.91-5.57-5.26-7.15,7.57-2.2-2.08,18.4-19.48ZM803.33,1178.42c2.89,2.73,6.43,3.23,8.8.73l.05-.06c2.29-2.42,1.79-5.58-1.35-8.55l-6.01-5.68-7.47,7.9,5.98,5.65Z"/>
        <path class="cls-2" d="M835.78,1188.02l15.88,11.1-1.58,2.26-13.4-9.36-5.24,7.5,11.99,8.38-1.58,2.26-11.99-8.38-5.37,7.69,13.56,9.47-1.58,2.26-16.04-11.21,15.35-21.97Z"/>
        <path class="cls-2" d="M892.16,1220.65l2.83,1.08-4.25,11.12,14.45,5.52,4.25-11.12,2.83,1.08-9.57,25.04-2.83-1.08,4.3-11.27-14.45-5.52-4.3,11.27-2.83-1.08,9.57-25.04Z"/>
        <path class="cls-2" d="M932.77,1234.3l18.94,4.1-.58,2.69-15.98-3.46-1.94,8.94,14.3,3.1-.58,2.69-14.3-3.1-1.99,9.17,16.17,3.5-.58,2.69-19.12-4.14,5.68-26.19Z"/>
        <path class="cls-2" d="M971.61,1241.17l11.5.75c3.32.22,5.86,1.38,7.43,3.17,1.25,1.43,1.86,3.27,1.72,5.41v.08c-.3,4.43-3.53,6.87-7.78,7.32l7.5,11.47-3.71-.24-7.07-10.9-7.64-.5-.68,10.39-3.02-.2,1.76-26.74ZM981.95,1255.54c3.97.26,7.01-1.61,7.24-5.05v-.08c.22-3.32-2.17-5.44-6.49-5.72l-8.25-.54-.71,10.85,8.21.54Z"/>
        <path class="cls-2" d="M1012.96,1242.26l19.32-1.54.22,2.75-16.3,1.3.73,9.12,14.58-1.16.22,2.75-14.58,1.16.74,9.35,16.49-1.31.22,2.75-19.51,1.55-2.12-26.72Z"/>
        <path class="cls-2" d="M1077.27,1231.5l18.29-6.02.87,2.65-15.42,5.08,2.99,9.09,13.78-4.54.86,2.62-13.78,4.54,3.65,11.09-2.87.95-8.38-25.46Z"/>
        <path class="cls-2" d="M1118.28,1230.83l-.03-.07c-3.36-6.58-1.36-14.87,5.9-18.58,7.26-3.71,15.05-.5,18.41,6.08l.03.07c3.36,6.58,1.36,14.87-5.9,18.58-7.26,3.71-15.05.5-18.41-6.08ZM1139.83,1219.83l-.04-.07c-2.77-5.42-8.99-7.84-14.44-5.05s-7.11,9.14-4.35,14.56l.04.07c2.77,5.42,8.99,7.84,14.44,5.05,5.46-2.79,7.11-9.14,4.35-14.56Z"/>
        <path class="cls-2" d="M1153.44,1195.61l9.3-6.81c2.69-1.97,5.38-2.7,7.73-2.34,1.87.29,3.52,1.31,4.79,3.04l.05.06c2.62,3.58,1.71,7.52-1.26,10.6l13.11,3.97-3,2.19-12.42-3.81-6.18,4.52,6.15,8.4-2.44,1.79-15.83-21.63ZM1170.6,1199.99c3.21-2.35,4.34-5.74,2.3-8.52l-.05-.06c-1.97-2.69-5.16-2.77-8.65-.22l-6.67,4.88,6.42,8.77,6.64-4.86Z"/>
        <path class="cls-2" d="M1221.86,1155.35l-19.58-1.81,2.35-2.82,16.08,1.64-4.46-15.58,2.26-2.71,5.28,18.91,8.18,6.82-1.96,2.35-8.15-6.79Z"/>
        <path class="cls-2" d="M1238.9,1128.78l-.07-.04c-6.32-3.83-8.99-11.93-4.76-18.9,4.22-6.98,12.53-8.35,18.85-4.53l.07.04c6.32,3.83,8.99,11.93,4.76,18.9s-12.53,8.35-18.85,4.53ZM1251.42,1108.07l-.07-.04c-5.21-3.15-11.77-1.93-14.94,3.31-3.17,5.24-1.24,11.51,3.97,14.67l.07.04c5.21,3.15,11.77,1.93,14.94-3.31,3.17-5.24,1.24-11.51-3.97-14.67Z"/>
        <path class="cls-2" d="M1264.58,1086.53l-14.46-5.8,1.13-2.81,14.29,5.73c5.4,2.17,9.51.56,11.44-4.24,1.84-4.58.23-8.61-5.2-10.79l-14.46-5.8,1.13-2.81,14.25,5.71c7.29,2.92,9.35,8.58,6.86,14.8-2.47,6.15-7.91,8.83-14.95,6.01Z"/>
      </g>
    </g>
  </g>
</svg>